<svg width="363" height="46" viewBox="0 0 363 46" fill="none" xmlns="http://www.w3.org/2000/svg">
<rect x="97.622" y="2.18472" width="252.105" height="41.4857" fill="#f3f3f3"/>
<path d="M27.1298 38.7375V36.4111L30.7055 36.1096C31.0214 36.0808 31.2081 36.009 31.2656 35.8942C31.3517 35.7793 31.3948 35.5639 31.3948 35.2479V13.8796L22.7355 31.4137H18.5566L10.1988 13.9227V35.2049C10.1988 35.5495 10.2275 35.7649 10.285 35.8511C10.3711 35.9372 10.5722 36.009 10.8881 36.0665L14.6362 36.4111V38.7375H2.91806V36.4111L5.63218 36.1096C5.94811 36.0521 6.1348 35.9803 6.19224 35.8942C6.2784 35.7793 6.32148 35.5639 6.32148 35.2479V11.0793C6.32148 10.7634 6.2784 10.548 6.19224 10.4331C6.1348 10.3182 5.94811 10.2464 5.63218 10.2177L2.91806 9.91612V7.54664H11.2758L20.7537 28.0103L30.5763 7.54664H38.8479V9.87303L35.9614 10.2177C35.6455 10.2751 35.4445 10.3469 35.3583 10.4331C35.3009 10.5193 35.2721 10.7203 35.2721 11.0362V35.2479C35.2721 35.5351 35.3152 35.7362 35.4014 35.8511C35.4875 35.9372 35.6742 36.009 35.9614 36.0665L38.8479 36.4111V38.7375H27.1298ZM55.7411 35.5926C56.8038 35.5926 57.7803 35.5064 58.6707 35.3341C59.5897 35.133 60.3796 34.7884 61.0401 34.3001C61.7007 33.8119 62.2177 33.1513 62.5911 32.3184C62.9644 31.4855 63.1511 30.4228 63.1511 29.1304C63.1511 27.0912 62.548 25.6264 61.3417 24.7361C60.1642 23.817 58.5414 23.3575 56.4735 23.3575H51.3038V35.5926H55.7411ZM43.8938 7.54664H56.2581V9.82995L51.9931 10.2608C51.6771 10.2895 51.4761 10.3613 51.3899 10.4762C51.3325 10.5623 51.3038 10.7777 51.3038 11.1224V20.2556H56.9905C58.8574 20.2556 60.437 20.471 61.7294 20.9019C63.0506 21.3327 64.1133 21.9358 64.9175 22.7113C65.7504 23.4867 66.3535 24.4058 66.7269 25.4685C67.1003 26.5311 67.2869 27.6943 67.2869 28.9581C67.2869 30.71 67.0141 32.2179 66.4684 33.4816C65.9227 34.7166 65.1472 35.7218 64.142 36.4973C63.1655 37.2728 61.9879 37.8472 60.6093 38.2205C59.2595 38.5652 57.766 38.7375 56.1289 38.7375H43.9799V36.4111L46.6941 36.1096C47.01 36.0521 47.1967 35.9803 47.2541 35.8942C47.3403 35.7793 47.3834 35.5639 47.3834 35.2479V10.9931C47.3834 10.6772 47.3403 10.4762 47.2541 10.39C47.1967 10.3038 47.01 10.232 46.6941 10.1746L43.8938 9.87303V7.54664ZM69.0102 38.7375V36.4111L72.1551 36.1096C72.4711 36.0808 72.6577 36.009 72.7152 35.8942C72.8013 35.7793 72.8444 35.5639 72.8444 35.2479V11.0362C72.8444 10.7203 72.8013 10.5049 72.7152 10.39C72.6577 10.2751 72.4711 10.2033 72.1551 10.1746L69.0102 9.87303V7.54664H80.8145V9.87303L77.4972 10.2177C77.1813 10.2751 76.9802 10.3469 76.8941 10.4331C76.8366 10.5193 76.8079 10.7203 76.8079 11.0362V35.2049C76.8079 35.5495 76.8366 35.7649 76.8941 35.8511C76.9802 35.9372 77.1813 36.009 77.4972 36.0665L80.8145 36.4111V38.7375H69.0102ZM84.0328 28.0964V24.2622H95.7078V28.0964H84.0328ZM355.764 30.6813L355.161 14.6981V7.54664H359.512V14.6981L358.995 30.6813H355.764ZM360.244 36.5404C360.244 38.3498 359.296 39.2545 357.401 39.2545C355.505 39.2545 354.558 38.3498 354.558 36.5404C354.558 34.731 355.505 33.8262 357.401 33.8262C359.296 33.8262 360.244 34.731 360.244 36.5404Z" fill="#f3f3f3"/>
<path d="M112.964 32.5338C112.476 33.7114 111.987 34.731 111.499 35.5926C111.04 36.4255 110.508 37.1148 109.905 37.6605C109.331 38.2062 108.67 38.6083 107.923 38.8668C107.177 39.1253 106.301 39.2545 105.295 39.2545C104.348 39.2545 103.357 39.1253 102.323 38.8668C101.289 38.637 100.427 38.3211 99.7379 37.919L100.944 34.9894C101.404 35.2479 101.993 35.4921 102.711 35.7218C103.429 35.9229 104.19 36.0234 104.994 36.0234C105.626 36.0234 106.143 35.9516 106.545 35.808C106.976 35.6357 107.335 35.3915 107.622 35.0756C107.938 34.7597 108.196 34.3719 108.397 33.9124C108.627 33.4242 108.871 32.8641 109.13 32.2322L100.427 11.5101C100.284 11.1655 100.126 10.907 99.9533 10.7347C99.8097 10.5623 99.5656 10.4331 99.221 10.3469L97.2823 9.87303L97.7131 7.54664H107.32V9.87303L104.132 10.2608L111.284 28.3118H111.37L118.478 10.2608L115.376 9.87303L115.807 7.54664H124.596V9.87303L122.786 10.3469C122.471 10.4331 122.226 10.548 122.054 10.6916C121.882 10.8352 121.709 11.108 121.537 11.5101L112.964 32.5338ZM140.845 36.2819L145.541 35.9803C145.857 35.9229 146.044 35.8511 146.101 35.7649C146.187 35.6787 146.23 35.4633 146.23 35.1187V25.9854C145.225 26.3014 144.019 26.5599 142.612 26.7609C141.233 26.9332 139.941 27.0194 138.734 27.0194C135.719 27.0194 133.493 26.3732 132.057 25.0807C130.649 23.7883 129.946 21.7491 129.946 18.9632V11.0362C129.946 10.6916 129.903 10.4762 129.816 10.39C129.759 10.3038 129.572 10.232 129.256 10.1746L126.672 9.87303V7.54664H137.313V9.87303L134.598 10.2177C134.283 10.2751 134.081 10.3469 133.995 10.4331C133.938 10.5193 133.909 10.7203 133.909 11.0362V18.1016C133.909 19.0781 133.995 19.9253 134.168 20.6434C134.34 21.3614 134.627 21.9645 135.029 22.4528C135.431 22.9123 135.991 23.257 136.709 23.4867C137.427 23.7165 138.318 23.8314 139.38 23.8314C139.897 23.8314 140.472 23.817 141.104 23.7883C141.736 23.7309 142.367 23.6591 142.999 23.5729C143.631 23.4867 144.234 23.3862 144.809 23.2713C145.383 23.1564 145.857 23.0128 146.23 22.8405V11.0362C146.23 10.6916 146.187 10.4762 146.101 10.39C146.015 10.3038 145.828 10.232 145.541 10.1746L143.085 9.87303V7.54664H153.727V9.87303L150.883 10.2177C150.567 10.2751 150.366 10.3469 150.28 10.4331C150.223 10.5193 150.194 10.7203 150.194 11.0362V35.2049C150.194 35.5495 150.223 35.7649 150.28 35.8511C150.366 35.9372 150.567 36.009 150.883 36.0665L153.727 36.4111V38.7375H140.845V36.2819ZM178.05 38.7375V36.4111L180.764 36.1096C181.08 36.0521 181.266 35.9803 181.324 35.8942C181.41 35.7793 181.453 35.5639 181.453 35.2479V12.9749L181.281 13.018L166.59 38.7375H158.835V36.4111L161.55 36.1096C161.865 36.0521 162.052 35.9803 162.11 35.8942C162.196 35.7793 162.239 35.5639 162.239 35.2479V11.0362C162.239 10.7203 162.196 10.5049 162.11 10.39C162.052 10.2751 161.865 10.2033 161.55 10.1746L158.835 9.87303V7.54664H169.778V9.87303L166.892 10.2177C166.576 10.2751 166.375 10.3469 166.288 10.4331C166.231 10.5193 166.202 10.7203 166.202 11.0362V33.2231H166.375L180.936 7.54664H188.992V9.87303L186.106 10.2177C185.79 10.2751 185.589 10.3469 185.503 10.4331C185.445 10.5193 185.417 10.7203 185.417 11.0362V35.2049C185.417 35.5495 185.445 35.7649 185.503 35.8511C185.589 35.9372 185.79 36.009 186.106 36.0665L188.992 36.4111V38.7375H178.05ZM198.572 38.7375V36.368L203.009 36.0665C203.325 36.0378 203.512 35.966 203.569 35.8511C203.655 35.7362 203.699 35.5208 203.699 35.2049V10.6054H197.021C196.791 10.6054 196.633 10.6341 196.547 10.6916C196.461 10.7203 196.389 10.8495 196.332 11.0793L195.642 14.8274H192.756V7.54664H218.605V14.8274H215.718L215.029 11.0793C214.971 10.8495 214.9 10.7203 214.814 10.6916C214.727 10.6341 214.569 10.6054 214.34 10.6054H207.662V35.2049C207.662 35.5208 207.691 35.7362 207.748 35.8511C207.834 35.9372 208.035 35.9947 208.351 36.0234L213.09 36.368V38.7375H198.572ZM222.49 38.7375V36.4111L225.204 36.1096C225.52 36.0521 225.706 35.9803 225.764 35.8942C225.85 35.7793 225.893 35.5639 225.893 35.2479V11.0793C225.893 10.7634 225.85 10.548 225.764 10.4331C225.706 10.3182 225.52 10.2464 225.204 10.2177L222.49 9.91612V7.54664H244.117V14.6551L241.187 14.4827L240.584 11.1655C240.498 10.7921 240.254 10.6054 239.852 10.6054H229.857V21.4619H241.359V24.5638H229.857V35.6787H240.799C241.029 35.6787 241.187 35.6644 241.273 35.6357C241.359 35.5782 241.431 35.4346 241.489 35.2049L242.178 31.4568H245.064V38.7375H222.49ZM266.638 38.7375V36.4111L269.266 36.1096C269.582 36.0521 269.769 35.9803 269.826 35.8942C269.912 35.7793 269.955 35.5639 269.955 35.2479V10.6054H260.52C260.578 13.8509 260.564 16.9096 260.477 19.7817C260.391 22.6538 260.19 25.2818 259.874 27.6656C259.673 29.3602 259.343 30.8824 258.883 32.2322C258.424 33.5821 257.792 34.7597 256.988 35.7649C256.212 36.7414 255.236 37.5312 254.058 38.1344C252.881 38.7375 251.459 39.1253 249.793 39.2976L249.061 35.7649C250.123 35.5926 251.043 35.3341 251.818 34.9894C252.593 34.6161 253.24 34.1278 253.757 33.5247C254.302 32.8928 254.748 32.1174 255.092 31.1983C255.466 30.2792 255.767 29.1591 255.997 27.8379C256.141 27.0338 256.27 26.0285 256.385 24.8223C256.528 23.616 256.629 22.2948 256.686 20.8588C256.772 19.394 256.83 17.8431 256.859 16.206C256.887 14.5402 256.873 12.8744 256.815 11.2086C256.815 10.8352 256.772 10.5911 256.686 10.4762C256.629 10.3326 256.442 10.232 256.126 10.1746L253.326 9.87303V7.54664H277.494V9.87303L274.608 10.2177C274.321 10.2751 274.134 10.3613 274.048 10.4762C273.962 10.5911 273.919 10.8208 273.919 11.1655V35.2049C273.919 35.5495 273.947 35.7649 274.005 35.8511C274.091 35.9372 274.292 36.009 274.608 36.0665L277.494 36.4111V38.7375H266.638ZM281.531 36.4111L284.374 35.9372C284.776 35.8798 285.035 35.7936 285.15 35.6787C285.265 35.5351 285.394 35.3054 285.538 34.9894L288.338 28.6565C288.826 27.5651 289.314 26.6604 289.803 25.9424C290.32 25.2243 291.081 24.6643 292.086 24.2622V24.2191C291.109 24.0755 290.19 23.817 289.329 23.4436C288.496 23.0703 287.749 22.5677 287.088 21.9358C286.457 21.2752 285.954 20.4854 285.581 19.5663C285.207 18.6473 285.021 17.5846 285.021 16.3783C285.021 15.488 285.135 14.5689 285.365 13.6211C285.624 12.6733 286.069 11.7973 286.701 10.9931C287.333 10.1602 288.194 9.44222 289.286 8.83908C290.377 8.23594 291.784 7.84821 293.508 7.67589C294.283 7.58972 295.13 7.54664 296.049 7.54664H308.155V9.91612L305.441 10.2177C305.154 10.2464 304.967 10.3182 304.881 10.4331C304.795 10.548 304.752 10.7634 304.752 11.0793V35.2479C304.752 35.5639 304.781 35.7793 304.838 35.8942C304.924 35.9803 305.125 36.0521 305.441 36.1096L308.155 36.4111V38.7375H297.385V36.4111L300.142 36.0665C300.401 36.009 300.573 35.9372 300.659 35.8511C300.774 35.7649 300.831 35.5495 300.831 35.2049V25.4685H295.963C295.216 25.4685 294.628 25.6408 294.197 25.9854C293.795 26.3014 293.407 26.8327 293.034 27.5795C292.746 28.1539 292.402 28.8575 292 29.6904C291.626 30.5233 291.224 31.4424 290.793 32.4476C290.391 33.4242 289.961 34.4581 289.501 35.5495C289.07 36.6409 288.654 37.7036 288.252 38.7375H281.531V36.4111ZM300.831 10.6916H295.963C294.987 10.6916 294.082 10.7921 293.249 10.9931C292.416 11.1655 291.684 11.467 291.052 11.8979C290.449 12.3287 289.975 12.9174 289.63 13.6642C289.286 14.3822 289.113 15.3013 289.113 16.4214C289.113 17.6564 289.329 18.6616 289.76 19.4371C290.219 20.2126 290.822 20.8157 291.569 21.2465C292.316 21.6773 293.163 21.9789 294.111 22.1512C295.087 22.2948 296.092 22.3666 297.126 22.3666H300.831V10.6916ZM337.492 38.7375V36.4111L341.068 36.1096C341.384 36.0808 341.57 36.009 341.628 35.8942C341.714 35.7793 341.757 35.5639 341.757 35.2479V13.8796L333.098 31.4137H328.919L320.561 13.9227V35.2049C320.561 35.5495 320.59 35.7649 320.647 35.8511C320.733 35.9372 320.934 36.009 321.25 36.0665L324.998 36.4111V38.7375H313.28V36.4111L315.994 36.1096C316.31 36.0521 316.497 35.9803 316.554 35.8942C316.641 35.7793 316.684 35.5639 316.684 35.2479V11.0793C316.684 10.7634 316.641 10.548 316.554 10.4331C316.497 10.3182 316.31 10.2464 315.994 10.2177L313.28 9.91612V7.54664H321.638L331.116 28.0103L340.938 7.54664H349.21V9.87303L346.324 10.2177C346.008 10.2751 345.807 10.3469 345.72 10.4331C345.663 10.5193 345.634 10.7203 345.634 11.0362V35.2479C345.634 35.5351 345.677 35.7362 345.764 35.8511C345.85 35.9372 346.036 36.009 346.324 36.0665L349.21 36.4111V38.7375H337.492Z" fill="#27292d"/>
</svg>
