<svg width="14" height="14" viewBox="0 0 14 14" fill="none" xmlns="http://www.w3.org/2000/svg">
<path fill-rule="evenodd" clip-rule="evenodd" d="M0.320435 4.35767C0.320435 1.98151 2.24669 0.0552521 4.62285 0.0552521H9.64233C12.0185 0.0552521 13.9447 1.98151 13.9447 4.35767V9.37714C13.9447 11.7533 12.0185 13.6796 9.64233 13.6796H4.62285C2.24669 13.6796 0.320435 11.7533 0.320435 9.37715V4.35767ZM12.2417 2.60978C12.2417 3.08006 11.8605 3.4613 11.3902 3.4613C10.9199 3.4613 10.5387 3.08006 10.5387 2.60978C10.5387 2.13949 10.9199 1.75826 11.3902 1.75826C11.8605 1.75826 12.2417 2.13949 12.2417 2.60978ZM9.40332 6.86742C9.40332 8.1215 8.38668 9.13814 7.1326 9.13814C5.87851 9.13814 4.86188 8.1215 4.86188 6.86742C4.86188 5.61334 5.87851 4.5967 7.1326 4.5967C8.38668 4.5967 9.40332 5.61334 9.40332 6.86742ZM10.5387 6.86742C10.5387 8.74854 9.01372 10.2735 7.1326 10.2735C5.25147 10.2735 3.72652 8.74854 3.72652 6.86742C3.72652 4.98629 5.25147 3.46134 7.1326 3.46134C9.01372 3.46134 10.5387 4.98629 10.5387 6.86742Z" fill="#FFF06A"/>
</svg>
