<svg width="27" height="26" viewBox="0 0 27 26" xmlns="http://www.w3.org/2000/svg">
<path d="M15.7441 9.60896C16.6926 10.2864 17.8541 10.685 19.1086 10.685V8.78561C18.4084 8.63658 17.7884 8.27078 17.3223 7.76203C16.5245 7.26444 15.9497 6.44352 15.7811 5.48267H14.0224V15.1206C14.0184 16.2441 13.1061 17.1539 11.981 17.1539C11.3181 17.1539 10.7291 16.838 10.3561 16.3488C9.68999 16.0128 9.23321 15.323 9.23321 14.5263C9.23321 13.3995 10.147 12.4861 11.2745 12.4861C11.4905 12.4861 11.6987 12.5197 11.894 12.5816V10.6615C9.47278 10.7115 7.52551 12.6888 7.52551 15.1206C7.52551 16.3346 8.01044 17.4351 8.79741 18.2391C9.50743 18.7157 10.3622 18.9935 11.2817 18.9935C13.7462 18.9935 15.7441 16.9966 15.7441 14.5333V9.60896Z" fill="#FFF06A"/>
</svg>
